<svg width="25" height="25" viewBox="0 0 25 25" fill="none" xmlns="http://www.w3.org/2000/svg">
<path d="M12.079 12.972C14.7178 12.972 16.857 10.8328 16.857 8.19402C16.857 5.5552 14.7178 3.41602 12.079 3.41602C9.44021 3.41602 7.30103 5.5552 7.30103 8.19402C7.30103 10.8328 9.44021 12.972 12.079 12.972Z" stroke="white" stroke-width="1.5" stroke-linecap="round" stroke-linejoin="round"/>
<path fill-rule="evenodd" clip-rule="evenodd" d="M4.50002 19.6174C4.49875 19.2815 4.57387 18.9497 4.71971 18.6471C5.17738 17.7318 6.468 17.2467 7.53893 17.027C8.31129 16.8622 9.09432 16.7521 9.88218 16.6975C11.3409 16.5693 12.808 16.5693 14.2666 16.6975C15.0544 16.7527 15.8374 16.8628 16.6099 17.027C17.6808 17.2467 18.9714 17.686 19.4291 18.6471C19.7224 19.2639 19.7224 19.98 19.4291 20.5968C18.9714 21.5579 17.6808 21.9972 16.6099 22.2078C15.8384 22.3794 15.0551 22.4926 14.2666 22.5464C13.0794 22.6471 11.8866 22.6654 10.6968 22.6014C10.4222 22.6014 10.1568 22.6014 9.88218 22.5464C9.09665 22.4933 8.31633 22.3801 7.54809 22.2078C6.468 21.9972 5.18653 21.5579 4.71971 20.5968C4.57461 20.2907 4.49957 19.9561 4.50002 19.6174Z" stroke="white" stroke-width="1.5" stroke-linecap="round" stroke-linejoin="round"/>
</svg>
