<svg width="25" height="25" viewBox="0 0 25 25" fill="none" xmlns="http://www.w3.org/2000/svg">
<g clip-path="url(#clip0_158_7486)">
<path d="M11.736 1.02852C11.586 1.08945 11.3844 1.19727 11.2907 1.26289C11.1922 1.32852 8.82504 3.67695 6.02191 6.48008C1.91566 10.5957 0.90785 11.627 0.809412 11.8238C0.359412 12.7332 0.509413 13.727 1.19848 14.4207C1.62973 14.8473 2.17816 15.0723 2.80629 15.0723H3.12504V18.8223C3.12504 21.3582 3.14379 22.6473 3.1766 22.816C3.35473 23.6691 4.04379 24.4426 4.89691 24.7379C5.20629 24.8457 5.22973 24.8457 7.49379 24.8457C9.72504 24.8457 9.7766 24.8457 9.90316 24.7473C9.97348 24.6957 10.0766 24.5926 10.1282 24.5223C10.2266 24.3957 10.2266 24.3348 10.25 21.2645L10.2735 18.1332L10.4141 17.9035C10.5922 17.6176 10.9532 17.3879 11.3 17.3457C11.4313 17.327 12.0875 17.3223 12.7578 17.3316L13.9766 17.3457L14.225 17.4816C14.4594 17.6129 14.6094 17.7676 14.7547 18.0254C14.8063 18.1238 14.825 18.7004 14.8438 21.2691C14.8672 24.3348 14.8672 24.3957 14.9657 24.5223C15.0172 24.5926 15.1203 24.6957 15.1907 24.7473C15.3172 24.8457 15.3688 24.8457 17.6 24.8457C19.8641 24.8457 19.8875 24.8457 20.1969 24.7379C21.05 24.4426 21.7391 23.6691 21.9172 22.816C21.95 22.6473 21.9688 21.3582 21.9688 18.8223V15.0723H22.2875C23.1688 15.0723 23.9375 14.6035 24.3172 13.8301C24.4766 13.5066 24.4766 13.4973 24.4766 12.8691C24.4766 11.8004 25.0157 12.4332 18.9969 6.41914C13.0157 0.433205 13.6157 0.94883 12.5938 0.925392C12.0641 0.916018 11.9844 0.925392 11.736 1.02852ZM12.8938 2.36914C13.1704 2.50039 22.9672 12.3113 23.0704 12.5504C23.1688 12.7895 23.1594 12.991 23.0422 13.2254C22.8688 13.5863 22.7235 13.6379 21.8188 13.666C20.9704 13.6895 20.9094 13.7082 20.6844 14.0129C20.586 14.1395 20.586 14.191 20.5625 18.391L20.5391 22.6426L20.4079 22.8629C20.3375 22.9848 20.211 23.1395 20.1266 23.2004C19.7985 23.4535 19.7 23.4629 17.9094 23.4629H16.25V20.8379C16.25 19.1176 16.2313 18.1332 16.1985 17.9691C16.0157 17.0879 15.3078 16.3285 14.3985 16.0426C14.0891 15.9441 13.986 15.9395 12.5469 15.9395C10.8688 15.9395 10.7844 15.9488 10.1844 16.2535C9.5891 16.5535 9.03598 17.2941 8.89535 17.9691C8.86254 18.1332 8.84379 19.1176 8.84379 20.8379V23.4629H7.18441C5.39379 23.4629 5.29535 23.4535 4.96723 23.2004C4.88285 23.1395 4.75629 22.9848 4.68598 22.8629L4.55473 22.6426L4.53129 18.391C4.50785 14.191 4.50785 14.1395 4.40941 14.0129C4.18441 13.7082 4.12348 13.6895 3.27504 13.666C2.37035 13.6379 2.22504 13.5863 2.0516 13.2254C1.93441 12.991 1.92504 12.7895 2.02347 12.5504C2.12191 12.316 11.9235 2.50508 12.1953 2.36914C12.4344 2.25196 12.6547 2.25196 12.8938 2.36914Z" fill="white"/>
</g>
<defs>
<clipPath id="clip0_158_7486">
<rect width="24" height="24" fill="white" transform="translate(0.5 0.916016)"/>
</clipPath>
</defs>
</svg>
