<svg width="25" height="25" viewBox="0 0 25 25" fill="none" xmlns="http://www.w3.org/2000/svg">
<path d="M12.1952 2.48165C12.0218 2.56134 11.8671 2.7254 11.8015 2.89884C11.764 2.9879 11.7499 4.54415 11.7499 7.82071V12.6113L11.2015 12.0629C10.8968 11.7629 10.6015 11.4957 10.5452 11.4676C10.489 11.4395 10.3484 11.416 10.2359 11.416C9.74835 11.416 9.38742 11.9363 9.5421 12.4098C9.5796 12.5176 9.97804 12.9488 10.8734 13.8395C12.2515 15.2129 12.2609 15.2223 12.6734 15.1426C12.828 15.1191 13.0296 14.9363 14.1499 13.816C15.5515 12.4145 15.5562 12.4051 15.4765 11.9926C15.4343 11.7629 15.153 11.4816 14.9234 11.4395C14.553 11.3691 14.4405 11.4301 13.8265 12.0395L13.2499 12.6066L13.2405 7.7504C13.2265 2.92696 13.2265 2.88946 13.128 2.7629C13.0765 2.69258 12.978 2.58946 12.9124 2.54259C12.753 2.4254 12.3827 2.39258 12.1952 2.48165Z" fill="white"/>
<path d="M6.5 7.73633C5.83906 7.88164 5.08906 8.40664 4.72344 8.96914C4.64375 9.09102 4.00156 10.4973 3.28906 12.0957L2 15.002V18.2129C2 21.7051 2 21.6863 2.2625 22.2066C2.42188 22.5207 2.89531 22.9941 3.20938 23.1535C3.75313 23.4301 3.28438 23.416 12.4813 23.416C18.0312 23.416 21.0125 23.402 21.1766 23.3691C22.0344 23.2051 22.7891 22.4504 22.9531 21.5926C22.9813 21.4379 23 20.1301 23 18.1707V15.002L21.7109 12.0957C20.9984 10.4973 20.3563 9.09102 20.2766 8.96914C20.0516 8.62227 19.5359 8.16289 19.1469 7.97539C18.6031 7.70352 18.275 7.66133 17.0422 7.67539C15.8703 7.68946 15.8563 7.69414 15.6219 8.01289C15.4859 8.19571 15.4859 8.63633 15.6219 8.81914C15.8563 9.13789 15.8656 9.14258 17.1078 9.16602C18.2234 9.18946 18.2469 9.19414 18.4813 9.31602C18.9172 9.54571 18.9688 9.63008 20.0422 12.0488C20.5906 13.2863 21.05 14.3223 21.0641 14.3551C21.0828 14.3973 20.6234 14.416 19.1234 14.4254C17.2156 14.4395 17.1594 14.4441 16.9063 14.5473C16.5969 14.6691 16.2969 14.9035 16.0859 15.1754C16.0016 15.2879 15.7484 15.7895 15.5234 16.291C15.2938 16.8066 15.0688 17.252 15.0031 17.3082L14.8859 17.416H12.5H10.1141L9.99688 17.3082C9.93125 17.252 9.70625 16.8066 9.47656 16.291C9.25156 15.7895 8.99844 15.2879 8.91406 15.1754C8.70313 14.9035 8.40313 14.6691 8.09375 14.5473C7.84063 14.4441 7.78438 14.4395 5.87656 14.4254C4.37656 14.416 3.91719 14.3973 3.93594 14.3551C3.95 14.3223 4.40938 13.2863 4.95781 12.0488C6.03594 9.62071 6.09688 9.51289 6.5375 9.29727C6.74375 9.19414 6.82812 9.18946 7.89219 9.16602C8.94219 9.14258 9.03594 9.13789 9.15313 9.04414C9.40156 8.86133 9.47656 8.71133 9.47656 8.41602C9.47656 8.12071 9.40156 7.97071 9.15313 7.78789C9.03125 7.69414 8.95625 7.68946 7.91563 7.68008C7.1 7.67539 6.725 7.68946 6.5 7.73633ZM7.64375 16.0191C7.71406 16.0848 7.92031 16.4785 8.14063 16.966C8.34688 17.4301 8.56719 17.8941 8.62813 18.002C8.79688 18.2832 9.13438 18.5738 9.49063 18.7426L9.80469 18.8926L12.3547 18.9066C14.0328 18.916 14.9891 18.902 15.1391 18.8691C15.6359 18.766 16.1234 18.4191 16.3719 17.9973C16.4328 17.8941 16.6531 17.4301 16.8594 16.966C17.0797 16.4785 17.2859 16.0848 17.3563 16.0191L17.4734 15.916H19.4891H21.5L21.4906 18.677C21.4766 21.3863 21.4766 21.4426 21.3781 21.5691C21.3266 21.6395 21.2234 21.7426 21.1531 21.7941L21.0266 21.8926H12.5H3.97344L3.84688 21.7941C3.77656 21.7426 3.67344 21.6395 3.62188 21.5691C3.52344 21.4426 3.52344 21.3863 3.50938 18.677L3.5 15.916H5.51094H7.52656L7.64375 16.0191Z" fill="white"/>
</svg>
