<svg width="18" height="18" viewBox="0 0 18 18" fill="none" xmlns="http://www.w3.org/2000/svg">
<path d="M8.01044 1.11934C8.03357 1.11916 8.0567 1.11899 8.08053 1.11881C8.15658 1.1183 8.23262 1.11805 8.30867 1.11786C8.33492 1.11776 8.36118 1.11766 8.38823 1.11756C8.52747 1.11703 8.66671 1.11671 8.80595 1.11655C8.94817 1.11636 9.09037 1.11552 9.23258 1.11452C9.34329 1.11385 9.45399 1.11368 9.56469 1.11362C9.61702 1.11352 9.66935 1.11324 9.72167 1.11277C10.8292 1.10357 11.8373 1.52043 12.6457 2.27321C12.7902 2.42021 12.9176 2.57875 13.043 2.74219C13.0664 2.77214 13.0899 2.8021 13.1141 2.83296C13.5476 3.40447 13.8477 4.06111 14.0383 4.75049C14.0505 4.79441 14.0505 4.79441 14.0629 4.83922C14.0883 4.9367 14.111 5.03443 14.1328 5.13281C14.1414 5.17178 14.1501 5.21074 14.159 5.25089C14.2578 5.74837 14.285 6.25397 14.3207 6.75902C14.3299 6.88853 14.3396 7.018 14.3492 7.14748C14.3828 7.60203 14.4149 8.05665 14.4438 8.51152C14.4482 8.57877 14.4526 8.64602 14.457 8.71327C14.4648 8.83237 14.4719 8.95148 14.4786 9.07065C14.5433 10.1304 14.9986 11.0404 15.6249 11.8788C16.0317 12.4308 16.3733 12.9317 16.3125 13.6406C16.2455 13.9793 15.9985 14.2399 15.7324 14.447C15.4451 14.6275 15.1602 14.6399 14.8278 14.637C14.7822 14.637 14.7365 14.637 14.6895 14.637C14.5652 14.6371 14.441 14.6364 14.3167 14.6357C14.1865 14.635 14.0563 14.635 13.9261 14.6348C13.6799 14.6345 13.4338 14.6337 13.1877 14.6326C12.9073 14.6314 12.6269 14.6308 12.3464 14.6303C11.77 14.6292 11.1936 14.6274 10.6172 14.625C10.6286 14.6581 10.64 14.6912 10.6517 14.7254C10.7744 15.1046 10.7211 15.6088 10.5469 15.9609C10.2968 16.4398 9.95148 16.6969 9.4426 16.8684C9.00909 16.9817 8.55925 16.9114 8.16502 16.708C7.75292 16.4658 7.47675 16.1269 7.33542 15.6653C7.27299 15.3217 7.26914 14.9554 7.3828 14.625C7.35884 14.6251 7.33489 14.6253 7.31021 14.6254C6.72625 14.6285 6.14229 14.6308 5.55832 14.6323C5.27591 14.633 4.99351 14.634 4.71111 14.6356C4.46485 14.637 4.2186 14.6379 3.97233 14.6382C3.84204 14.6384 3.71176 14.6388 3.58148 14.6399C3.43572 14.641 3.28998 14.641 3.14422 14.641C3.08004 14.6417 3.08004 14.6417 3.01456 14.6425C2.60526 14.6405 2.30247 14.5186 2.00389 14.2383C1.72697 13.942 1.6646 13.6428 1.67609 13.2426C1.72625 12.6733 2.17317 12.1652 2.491 11.7099C2.99903 10.9798 3.41722 10.1677 3.47742 9.26617C3.48001 9.23051 3.48259 9.19485 3.48525 9.15812C3.49081 9.08103 3.49625 9.00394 3.50159 8.92684C3.5101 8.80419 3.51893 8.68157 3.52784 8.55895C3.54992 8.25411 3.5715 7.94923 3.59303 7.64436C3.61121 7.38694 3.62962 7.12954 3.64835 6.87216C3.65697 6.75248 3.66525 6.63279 3.67352 6.51309C3.71457 5.93734 3.77151 5.36454 3.93089 4.80762C3.93998 4.77525 3.94908 4.74289 3.95844 4.70955C4.33804 3.39281 5.11662 2.25551 6.31932 1.57132C6.83262 1.30356 7.42922 1.12269 8.01044 1.11934ZM6.32811 2.98828C6.30518 3.00614 6.28225 3.02399 6.25862 3.04239C5.42699 3.71498 5.0066 4.93665 4.89327 5.96261C4.88514 6.04587 4.87734 6.12917 4.86981 6.21249C4.86544 6.25928 4.86106 6.30606 4.85668 6.35285C4.79145 7.06292 4.74609 7.77485 4.69774 8.48624C4.68694 8.6448 4.67584 8.80334 4.66455 8.96187C4.66039 9.02102 4.65635 9.08019 4.65244 9.13936C4.63275 9.43712 4.60596 9.73088 4.55464 10.025C4.54846 10.0605 4.54846 10.0605 4.54215 10.0967C4.40146 10.8528 3.99384 11.5794 3.55076 12.1992C3.43164 12.3737 3.31545 12.5502 3.1992 12.7266C3.17421 12.7642 3.17421 12.7642 3.14872 12.8026C3.09841 12.8788 3.04876 12.9553 2.99925 13.032C2.98355 13.0556 2.96786 13.0792 2.95168 13.1035C2.87147 13.2236 2.87147 13.2236 2.85041 13.3624C2.87791 13.437 2.87791 13.437 2.9598 13.4685C3.0674 13.5028 3.15239 13.5088 3.2652 13.5088C3.30681 13.509 3.34842 13.5092 3.39129 13.5094C3.43687 13.5092 3.48245 13.5091 3.52941 13.5089C3.57843 13.509 3.62745 13.5091 3.67646 13.5093C3.81114 13.5096 3.94582 13.5094 4.0805 13.5092C4.22575 13.509 4.371 13.5093 4.51625 13.5095C4.80081 13.5098 5.08536 13.5097 5.36992 13.5095C5.60117 13.5094 5.83242 13.5093 6.06367 13.5094C6.11301 13.5094 6.11301 13.5094 6.16335 13.5094C6.23017 13.5095 6.297 13.5095 6.36382 13.5095C6.99066 13.5097 7.61751 13.5095 8.24435 13.5091C8.78232 13.5088 9.32028 13.5088 9.85825 13.5092C10.4828 13.5095 11.1073 13.5097 11.7318 13.5095C11.7984 13.5095 11.865 13.5094 11.9316 13.5094C11.9644 13.5094 11.9971 13.5094 12.0309 13.5094C12.2619 13.5093 12.4928 13.5094 12.7238 13.5096C13.0053 13.5098 13.2868 13.5097 13.5683 13.5094C13.7119 13.5092 13.8555 13.5091 13.9992 13.5093C14.1307 13.5095 14.2621 13.5094 14.3936 13.509C14.4637 13.5089 14.5339 13.5092 14.604 13.5094C14.6665 13.5091 14.6665 13.5091 14.7303 13.5088C14.7842 13.5088 14.7842 13.5088 14.8392 13.5088C14.9543 13.4989 15.0464 13.4759 15.1523 13.4297C15.1989 13.3294 15.1989 13.3294 15.1573 13.2562C15.1411 13.2305 15.1249 13.2048 15.1082 13.1784C15.09 13.1492 15.0718 13.12 15.0531 13.09C15.0329 13.0585 15.0127 13.027 14.9919 12.9946C14.961 12.9456 14.961 12.9456 14.9295 12.8956C14.7818 12.6625 14.6293 12.4327 14.4756 12.2036C13.8836 11.321 13.4643 10.5081 13.3786 9.43424C13.3741 9.38021 13.3696 9.32619 13.3651 9.27216C13.3343 8.89669 13.3068 8.52098 13.2802 8.14519C13.2739 8.0567 13.2676 7.96822 13.2613 7.87974C13.257 7.8203 13.2528 7.76086 13.2485 7.70142C13.2464 7.67196 13.2443 7.64251 13.2422 7.61216C13.2315 7.46208 13.221 7.312 13.2109 7.16189C13.1202 5.82202 12.9612 4.49516 12.0937 3.41016C12.0553 3.36203 12.0553 3.36203 12.016 3.31293C11.4984 2.70371 10.7377 2.34357 9.94855 2.26811C8.69673 2.17321 7.33783 2.1333 6.32811 2.98828ZM8.52977 14.8931C8.45228 15.054 8.44461 15.1877 8.47264 15.3633C8.55454 15.5334 8.6541 15.6329 8.8242 15.7148C8.99979 15.7429 9.13348 15.7352 9.29442 15.6577C9.42042 15.5437 9.5131 15.4524 9.54079 15.279C9.54979 15.0791 9.52509 14.9537 9.3867 14.8008C9.23375 14.6624 9.10834 14.6377 8.90852 14.6467C8.73507 14.6744 8.64377 14.7671 8.52977 14.8931Z" fill="black"/>
</svg>
