<svg width="24" height="25" viewBox="0 0 24 25" fill="none" xmlns="http://www.w3.org/2000/svg">
<path d="M15.4559 0.958008C12.3657 1.28157 9.75374 3.45271 8.86746 6.42572C8.63768 7.19945 8.56266 7.73403 8.56266 8.62031C8.56266 9.44562 8.62831 9.95206 8.82057 10.6555L8.91435 11.0072L4.52986 15.3916C2.12425 17.8066 0.117232 19.8465 0.0750287 19.9309C0.00937859 20.0622 0 20.3529 0 22.2192C0 24.2685 0.0046893 24.3623 0.0937859 24.5404C0.154747 24.6624 0.253222 24.7608 0.375144 24.8218C0.553337 24.9109 0.647123 24.9156 2.71041 24.9156H4.85811L5.06913 24.7796C5.35049 24.6014 6.25083 23.6635 6.33055 23.4666C6.38213 23.3353 6.38213 23.2181 6.32586 22.7022C6.27897 22.2896 6.27428 22.0833 6.3071 22.0739C6.33055 22.0645 6.68225 22.027 7.08553 21.9895C7.89678 21.9098 7.99056 21.8863 8.16875 21.6987C8.32819 21.5252 8.37508 21.3283 8.44542 20.517C8.47356 20.1513 8.51576 19.8418 8.52983 19.8324C8.5439 19.823 8.82526 19.8465 9.15351 19.884C9.74436 19.9543 9.75843 19.9496 9.96007 19.8512C10.3024 19.687 10.3633 19.5041 10.3633 18.6413V17.9285H11.0621C11.4466 17.9285 11.8217 17.9051 11.8967 17.8817C11.9671 17.8535 12.4407 17.4174 12.9471 16.911L13.8709 15.9966L14.3305 16.1138C15.0526 16.3014 15.4841 16.3529 16.3188 16.3529C17.1769 16.3483 17.7255 16.2732 18.4899 16.0481C19.7419 15.673 20.8345 15.0165 21.763 14.074C23.8029 12.006 24.511 9.03765 23.6247 6.25221C22.5274 2.81028 19.0807 0.578175 15.4559 0.958008ZM17.1394 2.38355C20.9705 2.9322 23.4183 6.70239 22.3445 10.4022C21.9272 11.8278 20.994 13.0986 19.7795 13.9004C19.2449 14.2521 19.0432 14.3553 18.4758 14.5663C17.7255 14.8477 17.1628 14.9415 16.2953 14.9462C15.4606 14.9462 14.9964 14.8758 14.3024 14.646C13.7631 14.4632 13.5286 14.4632 13.2895 14.6414C13.191 14.7164 12.7174 15.1712 12.2391 15.6496L11.3715 16.5218H10.4431C9.40673 16.5218 9.27543 16.5499 9.08317 16.8219C8.98938 16.9532 8.98 17.0282 8.96594 17.7128L8.95187 18.4537L8.77836 18.4256C8.68458 18.4115 8.39384 18.3834 8.13593 18.3693C7.69514 18.3412 7.65762 18.3459 7.50756 18.4491C7.2309 18.6413 7.18869 18.7632 7.10428 19.687C7.06208 20.1513 7.01519 20.5452 6.99643 20.5592C6.97767 20.578 6.58377 20.6249 6.11953 20.6671C5.19574 20.7562 5.07382 20.7937 4.89094 21.0704C4.75964 21.2579 4.75495 21.3939 4.85811 22.2802L4.93783 22.9508L4.66116 23.2321L4.38918 23.5088H2.89799H1.40679V22.0176V20.5311L5.77252 16.1701C8.17344 13.7691 10.1992 11.7246 10.2742 11.6261C10.4524 11.387 10.4524 11.1525 10.2696 10.6133C10.0398 9.91924 9.96945 9.455 9.96945 8.62031C9.97413 7.75279 10.0679 7.19007 10.3493 6.43979C10.5603 5.87238 10.6635 5.67074 11.0152 5.13616C12.3282 3.13853 14.7666 2.04123 17.1394 2.38355Z" fill="white"/>
<path d="M17.5569 4.67656C16.7128 4.98606 16.1782 5.75979 16.1782 6.64606C16.1782 7.27443 16.3517 7.69178 16.7878 8.12788C17.2286 8.56867 17.6366 8.73749 18.2743 8.73749C19.4373 8.73749 20.3517 7.82308 20.3517 6.65075C20.3517 5.75041 19.8124 4.98137 18.959 4.67187C18.5463 4.52182 17.9648 4.5265 17.5569 4.67656ZM18.6354 6.0599C18.8464 6.20058 18.9449 6.38815 18.9449 6.65075C18.9449 6.91335 18.8464 7.10093 18.6354 7.2416C18.5463 7.29788 18.415 7.3307 18.265 7.3307C18.1149 7.3307 17.9836 7.29788 17.8945 7.2416C17.6835 7.10093 17.585 6.91335 17.585 6.65075C17.585 6.5007 17.6178 6.3694 17.6741 6.2803C17.8148 6.06928 18.0024 5.97081 18.265 5.97081C18.415 5.97081 18.5463 6.00363 18.6354 6.0599Z" fill="white"/>
</svg>
